<svg width="512" height="512" viewBox="0 0 512 512" fill="none" xmlns="http://www.w3.org/2000/svg">
<rect width="512" height="512" fill="#94447D"/>
<rect width="512" height="512" fill="#1D4ED8"/>
<path d="M247.281 348H220L107.641 175.453H106.516C108.016 195.703 108.766 214.266 108.766 231.141V348H86.6875V142.406H113.688L225.766 314.25H226.891C226.703 311.719 226.281 303.609 225.625 289.922C224.969 276.141 224.734 266.297 224.922 260.391V142.406H247.281V348ZM327.719 262.5V348H303.812V142.406H360.203C385.422 142.406 404.031 147.234 416.031 156.891C428.125 166.547 434.172 181.078 434.172 200.484C434.172 227.672 420.391 246.047 392.828 255.609L448.656 348H420.391L370.609 262.5H327.719ZM327.719 241.969H360.484C377.359 241.969 389.734 238.641 397.609 231.984C405.484 225.234 409.422 215.156 409.422 201.75C409.422 188.156 405.391 178.359 397.328 172.359C389.359 166.359 376.516 163.359 358.797 163.359H327.719V241.969Z" fill="white"/>
</svg>
